<?xml version="1.0" encoding="UTF-8" standalone="no"?>
<!-- Created with Inkscape (http://www.inkscape.org/) -->

<svg
   xmlns:dc="http://purl.org/dc/elements/1.1/"
   xmlns:cc="http://creativecommons.org/ns#"
   xmlns:rdf="http://www.w3.org/1999/02/22-rdf-syntax-ns#"
   xmlns:svg="http://www.w3.org/2000/svg"
   xmlns="http://www.w3.org/2000/svg"
   xmlns:sodipodi="http://sodipodi.sourceforge.net/DTD/sodipodi-0.dtd"
   xmlns:inkscape="http://www.inkscape.org/namespaces/inkscape"
   width="16mm"
   height="16mm"
   viewBox="0 0 56.692913 56.692913"
   id="svg2"
   version="1.1"
   inkscape:version="0.91 r13725"
   sodipodi:docname="verbose-pancake.svg">
  <defs
     id="defs4" />
  <sodipodi:namedview
     id="base"
     pagecolor="#ffffff"
     bordercolor="#666666"
     borderopacity="1.0"
     inkscape:pageopacity="0.0"
     inkscape:pageshadow="2"
     inkscape:zoom="11.2"
     inkscape:cx="20.513389"
     inkscape:cy="20.933934"
     inkscape:document-units="px"
     inkscape:current-layer="layer1"
     showgrid="false"
     fit-margin-top="0"
     fit-margin-left="0"
     fit-margin-right="0"
     fit-margin-bottom="0"
     inkscape:window-width="1880"
     inkscape:window-height="1019"
     inkscape:window-x="20"
     inkscape:window-y="20"
     inkscape:window-maximized="0"
     showborder="false" />
  <metadata
     id="metadata7">
    <rdf:RDF>
      <cc:Work
         rdf:about="">
        <dc:format>image/svg+xml</dc:format>
        <dc:type
           rdf:resource="http://purl.org/dc/dcmitype/StillImage" />
        <dc:title></dc:title>
      </cc:Work>
    </rdf:RDF>
  </metadata>
  <g
     inkscape:label="Layer 1"
     inkscape:groupmode="layer"
     id="layer1"
     transform="translate(-175.70761,-302.79516)">
    <g
       id="g4154"
       transform="translate(1.165125,-9.5658843)">
      <ellipse
         ry="4.9352527"
         rx="24.935253"
         cy="339.38004"
         cx="201.64287"
         id="ellipse4140"
         style="opacity:1;fill:#ffffff;fill-opacity:1;fill-rule:evenodd;stroke:#000000;stroke-width:2;stroke-miterlimit:4;stroke-dasharray:none;stroke-opacity:1" />
      <ellipse
         style="opacity:1;fill:#ffffff;fill-opacity:1;fill-rule:evenodd;stroke:#000000;stroke-width:2;stroke-miterlimit:4;stroke-dasharray:none;stroke-opacity:1"
         id="ellipse4138"
         cx="201.64287"
         cy="333.62112"
         rx="24.935253"
         ry="4.9352527" />
      <ellipse
         ry="4.9352527"
         rx="24.935253"
         cy="327.86218"
         cx="201.64287"
         id="path3336"
         style="opacity:1;fill:#ffffff;fill-opacity:1;fill-rule:evenodd;stroke:#000000;stroke-width:2;stroke-miterlimit:4;stroke-dasharray:none;stroke-opacity:1" />
      <path
         id="path4142"
         d="m 218.03571,327.54077 a 7.6339288,1.5178572 0 0 1 -7.63393,1.51786 7.6339288,1.5178572 0 0 1 -7.63393,-1.51786 7.6339288,1.5178572 0 0 1 7.63393,-1.51786 7.6339288,1.5178572 0 0 1 7.63393,1.51786 z"
         style="opacity:1;fill:#000000;fill-opacity:1;fill-rule:evenodd;stroke:#000000;stroke-width:2;stroke-miterlimit:4;stroke-dasharray:none;stroke-opacity:1"
         inkscape:connector-curvature="0" />
      <path
         sodipodi:nodetypes="cscccsccssscc"
         inkscape:connector-curvature="0"
         id="path4146"
         d="m 204.91071,328.88007 c 0,0 10.66965,2.0982 11.33929,4.37499 1.00332,3.41128 -1.16072,11.07143 -0.35714,10.89286 7.40432,9.59307 -41.9169,0.1096 -37.25188,9.2283 7.15204,12.24691 38.26335,-0.31591 45.09472,5.46308 0.44461,0.43704 1.82253,0.0453 0.27974,-3.07006 -1.04416,-2.10849 -35.18203,0.60525 -34.82365,-1.96827 3.01884,-3.41529 41.32135,1.20161 40.36178,-5.99237 -1.02678,-3.70536 -5.04464,-5.22321 -5.84821,-5.04464 -0.80357,0.17857 -3.21429,-7.32143 -1.78572,-9.64286 1.42857,-2.32143 -1.47321,-5.80357 -4.59821,-6.51786 -3.125,-0.71428 -12.41072,2.2768 -12.41072,2.2768 z"
         style="fill:#000000;fill-opacity:1;fill-rule:evenodd;stroke:#000000;stroke-width:1px;stroke-linecap:butt;stroke-linejoin:miter;stroke-opacity:1" />
    </g>
    <g
       transform="translate(1.165125,-9.5658843)"
       id="g4161">
      <ellipse
         style="opacity:1;fill:#ffffff;fill-opacity:1;fill-rule:evenodd;stroke:#000000;stroke-width:2;stroke-miterlimit:4;stroke-dasharray:none;stroke-opacity:1"
         id="ellipse4163"
         cx="201.64287"
         cy="339.38004"
         rx="24.935253"
         ry="4.9352527" />
      <ellipse
         ry="4.9352527"
         rx="24.935253"
         cy="333.62112"
         cx="201.64287"
         id="ellipse4165"
         style="opacity:1;fill:#ffffff;fill-opacity:1;fill-rule:evenodd;stroke:#000000;stroke-width:2;stroke-miterlimit:4;stroke-dasharray:none;stroke-opacity:1" />
      <ellipse
         style="opacity:1;fill:#ffffff;fill-opacity:1;fill-rule:evenodd;stroke:#000000;stroke-width:2;stroke-miterlimit:4;stroke-dasharray:none;stroke-opacity:1"
         id="ellipse4167"
         cx="201.64287"
         cy="327.86218"
         rx="24.935253"
         ry="4.9352527" />
      <path
         inkscape:connector-curvature="0"
         style="opacity:1;fill:#000000;fill-opacity:1;fill-rule:evenodd;stroke:#000000;stroke-width:2;stroke-miterlimit:4;stroke-dasharray:none;stroke-opacity:1"
         d="m 218.03571,327.54077 a 7.6339288,1.5178572 0 0 1 -7.63393,1.51786 7.6339288,1.5178572 0 0 1 -7.63393,-1.51786 7.6339288,1.5178572 0 0 1 7.63393,-1.51786 7.6339288,1.5178572 0 0 1 7.63393,1.51786 z"
         id="path4169" />
      <path
         style="fill:#000000;fill-opacity:1;fill-rule:evenodd;stroke:#000000;stroke-width:1px;stroke-linecap:butt;stroke-linejoin:miter;stroke-opacity:1"
         d="m 204.91071,328.88007 c 0,0 10.66965,2.0982 11.33929,4.37499 1.00332,3.41128 -1.16072,11.07143 -0.35714,10.89286 7.40432,9.59307 -41.9169,0.1096 -37.25188,9.2283 7.15204,12.24691 38.26335,-0.31591 45.09472,5.46308 0.44461,0.43704 1.82253,0.0453 0.27974,-3.07006 -1.04416,-2.10849 -35.18203,0.60525 -34.82365,-1.96827 3.01884,-3.41529 41.32135,1.20161 40.36178,-5.99237 -1.02678,-3.70536 -5.04464,-5.22321 -5.84821,-5.04464 -0.80357,0.17857 -3.21429,-7.32143 -1.78572,-9.64286 1.42857,-2.32143 -1.47321,-5.80357 -4.59821,-6.51786 -3.125,-0.71428 -12.41072,2.2768 -12.41072,2.2768 z"
         id="path4171"
         inkscape:connector-curvature="0"
         sodipodi:nodetypes="cscccsccssscc" />
    </g>
  </g>
</svg>
